<svg width="14" height="14" viewBox="0 0 14 14" fill="none" xmlns="http://www.w3.org/2000/svg">
<g id="envelope 1" clip-path="url(#clip0_2065_800)">
<g id="Group">
<g id="Group_2">
<path id="Vector" d="M1.34372 4.89061C1.52082 5.01558 2.05466 5.38675 2.94527 6.00391C3.8359 6.62107 4.51819 7.09627 4.99216 7.42953C5.04423 7.46606 5.15486 7.54547 5.32411 7.66787C5.49338 7.79035 5.63403 7.88932 5.74595 7.96482C5.85795 8.04029 5.99334 8.12495 6.15227 8.21867C6.31114 8.31231 6.46091 8.38275 6.60153 8.42937C6.74218 8.47639 6.87238 8.49967 6.99215 8.49967H7H7.00788C7.12765 8.49967 7.2579 8.47636 7.39855 8.42937C7.53912 8.38275 7.68902 8.31223 7.84776 8.21867C8.00658 8.12484 8.14197 8.04026 8.25397 7.96482C8.36597 7.88932 8.50651 7.79035 8.67584 7.66787C8.84505 7.54536 8.95582 7.46606 9.0079 7.42953C9.48698 7.09627 10.7058 6.24988 12.6641 4.89045C13.0443 4.62494 13.3619 4.30456 13.6171 3.92954C13.8725 3.55469 14 3.16144 14 2.75003C14 2.40623 13.8762 2.11194 13.6288 1.86717C13.3814 1.62234 13.0884 1.5 12.75 1.5H1.24995C0.848933 1.5 0.540324 1.6354 0.324178 1.90619C0.108059 2.17703 0 2.51558 0 2.92179C0 3.24991 0.143277 3.60548 0.429693 3.98827C0.716082 4.37109 1.02086 4.6719 1.34372 4.89061Z" fill="#FCE9D7"/>
<path id="Vector_2" d="M13.2187 5.72654C11.5105 6.88268 10.2135 7.7812 9.32816 8.42189C9.03129 8.64055 8.79046 8.81125 8.60551 8.93356C8.42056 9.05596 8.17459 9.18096 7.86724 9.3085C7.56 9.43624 7.27366 9.49991 7.00799 9.49991H7.00002H6.99217C6.72655 9.49991 6.44005 9.43624 6.13281 9.3085C5.82557 9.18096 5.57944 9.05596 5.39454 8.93356C5.2097 8.81125 4.96879 8.64055 4.67195 8.42189C3.96878 7.9063 2.67453 7.00773 0.789143 5.72654C0.492191 5.52875 0.229171 5.30204 0 5.04688V11.2498C0 11.5938 0.122343 11.8879 0.367167 12.1327C0.611935 12.3776 0.906259 12.5 1.25003 12.5H12.7501C13.0938 12.5 13.3881 12.3776 13.6329 12.1327C13.8777 11.8878 14 11.5938 14 11.2498V5.04688C13.776 5.29676 13.5157 5.52347 13.2187 5.72654Z" fill="#FCE9D7"/>
</g>
</g>
</g>
<defs>
<clipPath id="clip0_2065_800">
<rect width="14" height="14" fill="white"/>
</clipPath>
</defs>
</svg>
