<svg width="34" height="34" viewBox="0 0 34 34" fill="none" xmlns="http://www.w3.org/2000/svg">
<g id="insta 1" clip-path="url(#clip0_2065_778)">
<g id="Group">
<path id="Vector" opacity="0.2" d="M17 34C26.3888 34 34 26.3888 34 17C34 7.61116 26.3888 0 17 0C7.61116 0 0 7.61116 0 17C0 26.3888 7.61116 34 17 34Z" fill="#FCE9D7"/>
<g id="x33 4hbmL.tif">
<g id="Group_2">
<path id="Vector_2" d="M17.0493 6.6521C18.429 6.70137 19.858 6.70138 21.2377 6.75065C22.4696 6.79993 23.6029 6.99703 24.687 7.63761C26.0667 8.47529 26.9043 9.70717 27.2 11.284C27.3478 12.2202 27.3971 13.2057 27.4464 14.142C27.4956 16.2115 27.4464 18.2811 27.4464 20.3506C27.4464 21.4347 27.3971 22.5188 27.0522 23.5535C26.3623 25.5738 24.9333 26.8057 22.8638 27.1999C21.9275 27.397 20.942 27.397 20.0058 27.4463C17.9362 27.4956 15.9159 27.4463 13.8464 27.4463C12.7623 27.4463 11.6783 27.397 10.6435 27.0521C8.62318 26.3622 7.3913 24.9333 6.9971 22.8637C6.8 21.9275 6.8 20.942 6.75072 20.0057C6.70145 17.9362 6.75072 15.8666 6.75072 13.797C6.75072 12.713 6.8 11.6289 7.14492 10.5941C7.83478 8.57384 9.26376 7.34195 11.3333 6.94775C12.2696 6.75065 13.2551 6.75065 14.1913 6.70138C15.0783 6.6521 16.0638 6.6521 17.0493 6.6521ZM25.5739 16.8521C25.5246 16.8521 25.5739 16.8521 25.5739 16.8521C25.5246 16.0144 25.5246 15.226 25.5246 14.3883C25.5246 13.5999 25.4754 12.8115 25.3768 12.0231C25.1797 10.2492 24.1449 9.06659 22.4203 8.72167C21.5333 8.52456 20.5478 8.52456 19.6609 8.52456C17.887 8.47529 16.1623 8.47529 14.3884 8.52456C13.5014 8.52456 12.6145 8.57384 11.7768 8.72167C10.2985 8.96804 9.26376 9.80572 8.82029 11.284C8.67246 11.7767 8.62318 12.2695 8.57391 12.7622C8.52463 14.6347 8.52463 16.5072 8.52463 18.3796C8.52463 19.5622 8.57391 20.7941 8.67246 21.9767C8.82029 23.7507 9.90434 24.9825 11.6783 25.2782C12.5652 25.426 13.5014 25.4753 14.4377 25.4753C16.1623 25.5246 17.887 25.4753 19.6609 25.4753C20.4493 25.4753 21.2377 25.426 22.0261 25.3275C22.7652 25.2782 23.4551 25.0318 24.0464 24.5391C25.0319 23.7506 25.3768 22.7159 25.4261 21.5333C25.5246 20.055 25.5246 18.4289 25.5739 16.8521Z" fill="white"/>
<path id="Vector_3" d="M22.371 17.0495C22.371 20.006 20.0058 22.3713 17.0493 22.3713C14.0928 22.3713 11.7276 20.006 11.7276 17.0002C11.7276 14.093 14.1421 11.7278 17.0986 11.7278C20.0058 11.7278 22.371 14.093 22.371 17.0495ZM17 20.4988C18.8725 20.4988 20.4493 18.922 20.4493 17.0495C20.4493 15.1771 18.8725 13.6002 17 13.6002C15.0783 13.6002 13.5508 15.1771 13.5508 17.0495C13.5508 18.922 15.1276 20.4988 17 20.4988Z" fill="white"/>
<path id="Vector_4" d="M23.8 11.4812C23.8 12.171 23.258 12.7623 22.5681 12.7623C21.8782 12.7623 21.2869 12.171 21.3362 11.4812C21.3362 10.7913 21.8782 10.2493 22.5681 10.2493C23.258 10.2493 23.8 10.7913 23.8 11.4812Z" fill="white"/>
</g>
</g>
</g>
</g>
<defs>
<clipPath id="clip0_2065_778">
<rect width="34" height="34" fill="white"/>
</clipPath>
</defs>
</svg>
