<svg width="14" height="14" viewBox="0 0 14 14" fill="none" xmlns="http://www.w3.org/2000/svg">
<g id="phone-call 1" clip-path="url(#clip0_2065_796)">
<g id="Group">
<g id="Group_2">
<path id="Vector" d="M13.6189 10.2746L11.6652 8.32085C10.9674 7.62308 9.78123 7.90222 9.50212 8.80928C9.2928 9.4373 8.59503 9.78618 7.96704 9.6466C6.57151 9.29772 4.68755 7.48353 4.33866 6.01822C4.12933 5.39021 4.54799 4.69244 5.17598 4.48314C6.08308 4.20403 6.36218 3.01783 5.66442 2.32007L3.71068 0.366327C3.15246 -0.122109 2.31515 -0.122109 1.82671 0.366327L0.500956 1.69208C-0.824797 3.08761 0.640509 6.78576 3.92 10.0653C7.1995 13.3448 10.8977 14.8799 12.2932 13.4843L13.6189 12.1586C14.1074 11.6003 14.1074 10.763 13.6189 10.2746Z" fill="#FCE9D7"/>
</g>
</g>
</g>
<defs>
<clipPath id="clip0_2065_796">
<rect width="14" height="14" fill="white"/>
</clipPath>
</defs>
</svg>
