<svg width="30" height="21" viewBox="0 0 30 21" fill="none" xmlns="http://www.w3.org/2000/svg">
<g id="Group 35">
<rect id="Rectangle 50" width="30" height="3" rx="1.5" fill="#A0664E"/>
<path id="Rectangle 51" d="M0 10.5C0 9.67157 0.671573 9 1.5 9H28.5C29.3284 9 30 9.67157 30 10.5C30 11.3284 29.3284 12 28.5 12H1.5C0.671573 12 0 11.3284 0 10.5Z" fill="#A0664E"/>
<path id="Rectangle 52" d="M0 19.5C0 18.6716 0.671573 18 1.5 18H28.5C29.3284 18 30 18.6716 30 19.5C30 20.3284 29.3284 21 28.5 21H1.5C0.671573 21 0 20.3284 0 19.5Z" fill="#A0664E"/>
</g>
</svg>
