<svg width="34" height="34" viewBox="0 0 34 34" fill="none" xmlns="http://www.w3.org/2000/svg">
<g id="tg 1" clip-path="url(#clip0_2065_790)">
<g id="Group">
<path id="Vector" opacity="0.2" d="M17 34C26.3888 34 34 26.3888 34 17C34 7.61116 26.3888 0 17 0C7.61116 0 0 7.61116 0 17C0 26.3888 7.61116 34 17 34Z" fill="#FCE9D7"/>
<g id="Het1PX.tif">
<g id="Group_2">
<path id="Vector_2" d="M26.0667 10.3972C26.0174 10.8407 25.9189 11.3335 25.8203 11.7769C24.9826 15.719 24.1449 19.661 23.3073 23.603C23.258 23.8494 23.2087 24.0465 23.1102 24.2436C22.9131 24.5885 22.6174 24.6871 22.2232 24.5885C21.9768 24.5393 21.7797 24.4407 21.5826 24.2929C20.3015 23.3566 19.0696 22.4204 17.7884 21.4842C17.6406 21.3856 17.542 21.3856 17.3942 21.5335C16.7536 22.1248 16.1623 22.7653 15.5218 23.3566C15.2754 23.603 15.029 23.7508 14.6841 23.7016C14.4377 23.7016 14.2899 23.603 14.2406 23.3566C13.8464 22.1248 13.4522 20.9422 13.058 19.7103C12.9102 19.3161 12.7623 18.8726 12.6638 18.4784C12.6145 18.3306 12.5652 18.232 12.3681 18.1827C11.1363 17.7885 9.90437 17.3943 8.67248 17.0494C8.52466 17.0001 8.32756 16.9508 8.17973 16.8523C7.8348 16.6552 7.78553 16.3595 8.13045 16.0639C8.32756 15.8668 8.57393 15.7682 8.86958 15.6697C10.5449 15.0291 12.2203 14.3885 13.8957 13.748C17.542 12.3682 21.1391 10.9393 24.7855 9.55954C24.8348 9.55954 24.8348 9.55954 24.8841 9.51027C25.5739 9.26389 26.0667 9.60882 26.0667 10.3972ZM14.7334 22.5682C14.7826 22.519 14.7826 22.4697 14.7826 22.4697C14.8812 21.5827 14.9305 20.6958 15.029 19.8088C15.029 19.6117 15.1276 19.4146 15.2754 19.2668C17.6406 17.148 20.0058 15.0291 22.371 12.9103C22.5189 12.7624 22.6667 12.6639 22.8145 12.5161C22.8638 12.4668 22.9623 12.4175 22.9131 12.319C22.8638 12.2204 22.7652 12.2204 22.6667 12.2204C22.4696 12.2204 22.3218 12.319 22.1739 12.4175C19.2667 14.2407 16.3594 16.0639 13.4522 17.9364C13.3044 18.0349 13.2551 18.1335 13.3044 18.3306C13.6493 19.4146 13.9942 20.4987 14.3884 21.5827C14.487 21.8291 14.5855 22.174 14.7334 22.5682Z" fill="#FEFEFE"/>
</g>
</g>
</g>
</g>
<defs>
<clipPath id="clip0_2065_790">
<rect width="34" height="34" fill="white"/>
</clipPath>
</defs>
</svg>
